<?xml version="1.0" encoding="UTF-8" standalone="no"?>
<!-- Created with Inkscape (http://www.inkscape.org/) -->

<svg
   version="1.1"
   id="svg2"
   width="650"
   height="260"
   viewBox="0 0 650.00003 260"
   sodipodi:docname="EINS_Logo_neu.svg"
   xml:space="preserve"
   inkscape:version="1.2.1 (9c6d41e410, 2022-07-14)"
   xmlns:inkscape="http://www.inkscape.org/namespaces/inkscape"
   xmlns:sodipodi="http://sodipodi.sourceforge.net/DTD/sodipodi-0.dtd"
   xmlns="http://www.w3.org/2000/svg"
   xmlns:svg="http://www.w3.org/2000/svg"><defs
     id="defs6" /><sodipodi:namedview
     id="namedview4"
     pagecolor="#ffffff"
     bordercolor="#666666"
     borderopacity="1.0"
     inkscape:showpageshadow="2"
     inkscape:pageopacity="0.0"
     inkscape:pagecheckerboard="0"
     inkscape:deskcolor="#d1d1d1"
     showgrid="false"
     inkscape:zoom="1.2935186"
     inkscape:cx="458.82602"
     inkscape:cy="394.65996"
     inkscape:window-width="2468"
     inkscape:window-height="1411"
     inkscape:window-x="2551"
     inkscape:window-y="-9"
     inkscape:window-maximized="1"
     inkscape:current-layer="g10"><inkscape:page
       x="0"
       y="0"
       id="page8"
       width="650"
       height="260" /></sodipodi:namedview><g
     id="g10"
     inkscape:groupmode="layer"
     inkscape:label="Page 1"
     transform="matrix(1.3333333,0,0,1.3333333,-1.241932,-2.1975378)"><g
       id="g12"
       transform="matrix(0.59049,0,0,0.59049,-4.4067015,-75.580377)"><path
         d="m 271.207,167.563 v 22.8 h -77.891 v 55.52 h 72.243 v 22.805 h -72.243 v 63.949 h 80.145 v 22.824 H 166.508 V 167.563 Z"
         style="fill:#000000;fill-opacity:1;fill-rule:nonzero;stroke:none"
         id="path14" /><path
         d="m 317.199,167.563 h 26.816 v 187.898 h -26.816 z"
         style="fill:#13b1a4;fill-opacity:1;fill-rule:nonzero;stroke:none"
         id="path16" /><path
         d="M 543.238,167.563 V 355.461 H 508.543 L 448.992,253.465 c -17.222,-29.567 -27.929,-50.981 -31.597,-64.488 1.386,17.175 2.257,40.55 2.257,70.687 v 95.797 H 392.836 V 167.563 h 36.676 l 64.066,110.714 c 12.707,21.688 21.164,39.707 25.672,53.809 -1.961,-18.316 -2.824,-42.828 -2.824,-74.106 v -90.417 z"
         style="fill:#000000;fill-opacity:1;fill-rule:nonzero;stroke:none"
         id="path18" /><path
         d="m 678.969,170.656 -3.371,23.672 c -13.559,-5.078 -25.403,-7.609 -35.289,-7.609 -9.868,0 -18.043,2.258 -24.536,7.039 -6.222,4.781 -9.316,11.258 -9.316,18.859 0,6.5 2.254,11.852 6.762,16.36 4.242,4.785 12.144,9.843 23.719,15.765 l 10.16,5.078 c 15.789,7.887 26.793,15.496 32.734,23.102 5.926,7.609 9.023,17.457 9.023,29.574 0,16.902 -5.925,30.43 -17.496,40.848 -11.843,10.433 -27.382,15.785 -46.562,15.785 -15.52,0 -29.914,-2.555 -43.176,-7.609 l 2.832,-25.082 c 13.824,6.488 25.945,9.867 36.949,9.867 11.571,0 21.161,-2.828 28.223,-8.731 7.063,-5.922 10.434,-13.531 10.434,-23.101 0,-13.254 -9.59,-24.239 -29.043,-32.961 l -10.457,-4.785 c -14.942,-7.063 -25.676,-14.375 -32.172,-22.258 -6.489,-7.903 -9.86,-17.746 -9.86,-29.297 0,-15.512 5.352,-27.906 16.356,-37.199 11,-9.297 25.101,-14.078 42.894,-14.078 13.828,0 27.657,2.253 41.192,6.761 z"
         style="fill:#000000;fill-opacity:1;fill-rule:nonzero;stroke:none"
         id="path20" /><path
         d="m 38.406,395.352 v 3.097 h -9.82 v 7.52 h 9.117 v 3.07 h -9.117 v 8.664 H 38.68 v 3.094 H 25.215 v -25.445 z"
         style="fill:#13b1a4;fill-opacity:1;fill-rule:nonzero;stroke:none"
         id="path22" /><path
         d="m 62.895,395.352 v 25.445 H 58.52 l -7.493,-13.805 c -2.164,-4.012 -3.535,-6.902 -3.988,-8.722 0.18,2.32 0.297,5.488 0.297,9.562 v 12.965 h -3.395 v -25.445 h 4.625 l 8.067,14.988 c 1.613,2.941 2.664,5.379 3.23,7.293 -0.25,-2.485 -0.34,-5.809 -0.34,-10.028 v -12.253 z"
         style="fill:#000000;fill-opacity:1;fill-rule:nonzero;stroke:none"
         id="path24" /><path
         d="m 82.195,395.352 v 3.097 h -9.824 v 7.52 h 9.109 v 3.07 h -9.109 v 8.664 h 10.113 v 3.094 H 69 v -25.445 z"
         style="fill:#000000;fill-opacity:1;fill-rule:nonzero;stroke:none"
         id="path26" /><path
         d="m 87.75,395.352 h 5.719 c 2.367,0 4.144,0.23 5.351,0.66 1.184,0.41 2.141,1.183 2.848,2.273 0.703,1.121 1.07,2.375 1.07,3.785 0,1.938 -0.633,3.508 -1.957,4.649 -0.707,0.613 -1.734,1.066 -3.097,1.344 1.207,0.57 2.211,1.707 2.961,3.46 l 4.007,9.274 h -3.894 l -3.074,-7.633 c -0.641,-1.57 -1.231,-2.594 -1.778,-3.051 -0.527,-0.414 -1.484,-0.64 -2.824,-0.64 h -1.961 v 11.324 H 87.75 Z m 3.371,3.097 v 7.879 h 2.094 c 1.664,0 2.918,-0.133 3.691,-0.453 1.574,-0.613 2.348,-1.773 2.348,-3.508 0,-1.754 -0.754,-2.937 -2.277,-3.508 -0.704,-0.254 -1.848,-0.41 -3.418,-0.41 z"
         style="fill:#000000;fill-opacity:1;fill-rule:nonzero;stroke:none"
         id="path28" /><path
         d="m 126.02,396.422 -0.25,3.484 c -1.821,-1.117 -3.825,-1.636 -6.036,-1.636 -2.8,0 -5.078,0.863 -6.859,2.664 -1.773,1.82 -2.664,4.101 -2.664,6.968 0,3.004 0.891,5.426 2.664,7.246 1.781,1.825 4.125,2.735 6.992,2.735 1.004,0 2.078,-0.18 3.192,-0.574 v -7.36 h -5.079 v -3.07 h 8.473 v 12.918 c -2.164,0.797 -4.437,1.183 -6.828,1.183 -4.016,0 -7.18,-1.183 -9.523,-3.554 -2.352,-2.348 -3.512,-5.555 -3.512,-9.571 0,-3.847 1.16,-6.921 3.512,-9.25 2.343,-2.296 5.461,-3.437 9.406,-3.437 2.39,0 4.555,0.414 6.512,1.254 z"
         style="fill:#000000;fill-opacity:1;fill-rule:nonzero;stroke:none"
         id="path30" /><path
         d="m 151.465,395.352 -9.242,14.644 v 10.801 h -3.379 v -10.684 l -9.383,-14.761 h 4.195 l 5.879,9.543 c 0.25,0.367 0.586,1.027 1.02,1.89 0.211,-0.48 0.547,-1.047 0.957,-1.773 l 5.949,-9.66 z"
         style="fill:#000000;fill-opacity:1;fill-rule:nonzero;stroke:none"
         id="path32" /><path
         d="m 163.84,395.352 h 3.371 v 25.445 h -3.371 z"
         style="fill:#13b1a4;fill-opacity:1;fill-rule:nonzero;stroke:none"
         id="path34" /><path
         d="m 192.313,395.352 v 25.445 h -4.375 l -7.493,-13.805 c -2.164,-4.012 -3.527,-6.902 -3.984,-8.722 0.184,2.32 0.293,5.488 0.293,9.562 v 12.965 h -3.395 v -25.445 h 4.625 l 8.067,14.988 c 1.613,2.941 2.664,5.379 3.234,7.293 -0.25,-2.485 -0.344,-5.809 -0.344,-10.028 v -12.253 z"
         style="fill:#000000;fill-opacity:1;fill-rule:nonzero;stroke:none"
         id="path36" /><path
         d="m 211.016,395.352 v 3.097 h -9.227 v 7.629 h 8.867 v 3.078 h -8.867 v 11.641 h -3.371 v -25.445 z"
         style="fill:#000000;fill-opacity:1;fill-rule:nonzero;stroke:none"
         id="path38" /><path
         d="m 225.762,394.867 c 3.437,0 6.191,1.168 8.246,3.582 2.023,2.391 3.047,5.653 3.047,9.637 0,3.785 -0.953,6.902 -2.844,9.383 -1.938,2.554 -4.828,3.808 -8.566,3.808 -3.555,0 -6.313,-1.183 -8.336,-3.574 -2.098,-2.484 -3.168,-5.676 -3.168,-9.57 0,-4.125 1.093,-7.434 3.347,-9.981 1.914,-2.187 4.692,-3.285 8.274,-3.285 z m -0.024,2.856 c -2.441,0 -4.351,0.906 -5.808,2.773 -1.461,1.871 -2.164,4.399 -2.164,7.567 0,3.054 0.75,5.515 2.207,7.468 1.461,1.938 3.324,2.899 5.648,2.899 2.301,0 4.192,-0.961 5.649,-2.899 1.46,-1.914 2.164,-4.351 2.164,-7.355 0,-3.102 -0.704,-5.578 -2.118,-7.563 -1.457,-1.937 -3.324,-2.89 -5.578,-2.89 z"
         style="fill:#000000;fill-opacity:1;fill-rule:nonzero;stroke:none"
         id="path40" /><path
         d="m 241.82,395.352 h 5.739 c 2.367,0 4.148,0.23 5.355,0.66 1.184,0.41 2.141,1.183 2.844,2.273 0.707,1.121 1.074,2.375 1.074,3.785 0,1.938 -0.641,3.508 -1.957,4.649 -0.707,0.613 -1.734,1.066 -3.098,1.344 1.207,0.57 2.211,1.707 2.957,3.46 l 4.012,9.274 h -3.918 l -3.051,-7.633 c -0.64,-1.57 -1.23,-2.594 -1.781,-3.051 -0.523,-0.414 -1.48,-0.64 -2.844,-0.64 h -1.937 v 11.324 h -3.395 z m 3.395,3.097 v 7.879 h 2.094 c 1.664,0 2.918,-0.133 3.691,-0.453 1.57,-0.613 2.344,-1.773 2.344,-3.508 0,-1.754 -0.75,-2.937 -2.274,-3.508 -0.711,-0.254 -1.847,-0.41 -3.418,-0.41 z"
         style="fill:#000000;fill-opacity:1;fill-rule:nonzero;stroke:none"
         id="path42" /><path
         d="m 288.613,395.352 v 25.445 h -3.394 v -14.531 c 0,-0.801 0.047,-2.282 0.09,-4.422 0.023,-2.141 0.023,-3.559 0.023,-4.285 v -0.52 c -0.113,0.383 -0.184,0.613 -0.207,0.637 l -0.566,1.98 c -0.227,0.731 -0.754,2.297 -1.575,4.739 -0.316,0.867 -0.777,2.253 -1.39,4.035 l -4.442,12.367 h -3.254 l -4.492,-12.367 c -1.66,-4.563 -2.867,-8.16 -3.621,-10.707 0,0 -0.07,-0.231 -0.203,-0.684 v 0.566 c 0.07,0.68 0.133,1.825 0.203,3.465 0,0.453 0.047,1.387 0.07,2.758 0.047,1.09 0.063,2.024 0.063,2.703 v 14.266 h -3.371 v -25.445 h 5.582 l 4.648,12.781 c 1.207,3.324 1.891,5.258 2.078,5.762 0.336,1.093 0.586,2.05 0.75,2.781 0.387,-1.481 1.297,-4.352 2.825,-8.613 l 4.531,-12.711 z"
         style="fill:#000000;fill-opacity:1;fill-rule:nonzero;stroke:none"
         id="path44" /><path
         d="m 305.496,395.352 10.27,25.445 h -3.805 l -2.484,-6.449 h -11.524 l -2.461,6.449 h -3.644 l 10.09,-25.445 z m 2.797,15.898 -2.734,-7.086 c -1.09,-2.867 -1.75,-4.758 -1.914,-5.668 -0.297,1.043 -0.954,2.957 -2.004,5.738 l -2.621,7.016 z"
         style="fill:#000000;fill-opacity:1;fill-rule:nonzero;stroke:none"
         id="path46" /><path
         d="m 332.219,395.352 v 3.097 h -7.43 v 22.348 h -3.371 v -22.348 h -7.566 v -3.097 z"
         style="fill:#000000;fill-opacity:1;fill-rule:nonzero;stroke:none"
         id="path48" /><path
         d="m 335.676,395.352 h 3.371 v 25.445 h -3.371 z"
         style="fill:#000000;fill-opacity:1;fill-rule:nonzero;stroke:none"
         id="path50" /><path
         d="m 355.547,394.867 c 3.433,0 6.168,1.168 8.246,3.582 2.023,2.391 3.047,5.653 3.047,9.637 0,3.785 -0.953,6.902 -2.844,9.383 -1.961,2.554 -4.828,3.808 -8.566,3.808 -3.555,0 -6.336,-1.183 -8.34,-3.574 -2.117,-2.484 -3.168,-5.676 -3.168,-9.57 0,-4.125 1.098,-7.434 3.332,-9.981 1.934,-2.187 4.687,-3.285 8.293,-3.285 z m -0.047,2.856 c -2.414,0 -4.328,0.906 -5.785,2.773 -1.461,1.871 -2.164,4.399 -2.164,7.567 0,3.054 0.746,5.515 2.203,7.468 1.457,1.938 3.332,2.899 5.652,2.899 2.301,0 4.192,-0.961 5.649,-2.899 1.461,-1.914 2.164,-4.351 2.164,-7.355 0,-3.102 -0.703,-5.578 -2.141,-7.563 -1.457,-1.937 -3.305,-2.89 -5.578,-2.89 z"
         style="fill:#000000;fill-opacity:1;fill-rule:nonzero;stroke:none"
         id="path52" /><path
         d="m 390.559,395.352 v 25.445 h -4.371 l -7.5,-13.805 c -2.188,-4.012 -3.528,-6.902 -3.985,-8.722 0.18,2.32 0.274,5.488 0.274,9.562 v 12.965 h -3.372 v -25.445 h 4.625 l 8.063,14.988 c 1.598,2.941 2.664,5.379 3.234,7.293 -0.25,-2.485 -0.359,-5.809 -0.359,-10.028 v -12.253 z"
         style="fill:#000000;fill-opacity:1;fill-rule:nonzero;stroke:none"
         id="path54" /><path
         d="m 424.504,395.352 v 25.445 h -4.375 l -7.496,-13.805 c -2.184,-4.012 -3.531,-6.902 -3.988,-8.722 0.183,2.32 0.273,5.488 0.273,9.562 v 12.965 h -3.371 v -25.445 h 4.625 l 8.066,14.988 c 1.594,2.941 2.668,5.379 3.231,7.293 -0.25,-2.485 -0.36,-5.809 -0.36,-10.028 v -12.253 z"
         style="fill:#13b1a4;fill-opacity:1;fill-rule:nonzero;stroke:none"
         id="path56" /><path
         d="m 443.797,395.352 v 3.097 h -9.817 v 7.52 h 9.11 v 3.07 h -9.11 v 8.664 h 10.09 v 3.094 h -13.461 v -25.445 z"
         style="fill:#000000;fill-opacity:1;fill-rule:nonzero;stroke:none"
         id="path58" /><path
         d="m 465.188,395.352 v 3.097 h -7.426 v 22.348 h -3.371 v -22.348 h -7.563 v -3.097 z"
         style="fill:#000000;fill-opacity:1;fill-rule:nonzero;stroke:none"
         id="path60" /><path
         d="m 500.641,395.352 -7.11,25.445 h -4.304 l -4.129,-16.695 c -0.567,-2.305 -0.996,-4.243 -1.321,-5.817 -0.25,1.301 -0.632,3.238 -1.16,5.817 l -3.918,16.695 h -4.375 l -7.289,-25.445 h 3.715 l 4.078,14.875 c 0.817,3.007 1.387,5.328 1.66,7.015 0.16,-1.07 0.637,-3.437 1.504,-7.129 l 3.418,-14.761 h 4.852 l 3.648,14.875 c 0.313,1.41 0.774,3.461 1.41,6.175 0,0 0.071,0.274 0.203,0.84 0.321,-2.023 0.864,-4.375 1.575,-7.015 l 4.054,-14.875 z"
         style="fill:#000000;fill-opacity:1;fill-rule:nonzero;stroke:none"
         id="path62" /><path
         d="m 513.738,394.867 c 3.457,0 6.196,1.168 8.246,3.582 2.024,2.391 3.075,5.653 3.075,9.637 0,3.785 -0.957,6.902 -2.848,9.383 -1.957,2.554 -4.828,3.808 -8.566,3.808 -3.551,0 -6.332,-1.183 -8.364,-3.574 -2.093,-2.484 -3.168,-5.676 -3.168,-9.57 0,-4.125 1.121,-7.434 3.356,-9.981 1.914,-2.187 4.687,-3.285 8.269,-3.285 z m -0.023,2.856 c -2.414,0 -4.328,0.906 -5.785,2.773 -1.457,1.871 -2.188,4.399 -2.188,7.567 0,3.054 0.746,5.515 2.203,7.468 1.461,1.938 3.356,2.899 5.653,2.899 2.328,0 4.195,-0.961 5.652,-2.899 1.457,-1.914 2.188,-4.351 2.188,-7.355 0,-3.102 -0.731,-5.578 -2.141,-7.563 -1.457,-1.937 -3.309,-2.89 -5.582,-2.89 z"
         style="fill:#000000;fill-opacity:1;fill-rule:nonzero;stroke:none"
         id="path64" /><path
         d="m 529.816,395.352 h 5.723 c 2.367,0 4.145,0.23 5.375,0.66 1.16,0.41 2.117,1.183 2.824,2.273 0.731,1.121 1.075,2.375 1.075,3.785 0,1.938 -0.645,3.508 -1.961,4.649 -0.707,0.613 -1.731,1.066 -3.079,1.344 1.211,0.57 2.188,1.707 2.938,3.46 l 4.012,9.274 h -3.895 l -3.055,-7.633 c -0.636,-1.57 -1.25,-2.594 -1.773,-3.051 -0.551,-0.414 -1.504,-0.64 -2.848,-0.64 h -1.957 v 11.324 h -3.379 z m 3.379,3.097 v 7.879 h 2.094 c 1.66,0 2.914,-0.133 3.691,-0.453 1.567,-0.613 2.344,-1.773 2.344,-3.508 0,-1.754 -0.73,-2.937 -2.281,-3.508 -0.707,-0.254 -1.844,-0.41 -3.395,-0.41 z"
         style="fill:#000000;fill-opacity:1;fill-rule:nonzero;stroke:none"
         id="path66" /><path
         d="m 553.922,395.352 v 8.515 c 0,1.442 -0.047,2.461 -0.067,3.035 0.411,-0.527 1.047,-1.277 1.938,-2.324 l 8.285,-9.226 h 4.563 l -11.164,12.05 12.121,13.395 h -4.922 l -8.633,-9.891 c -0.211,-0.265 -0.914,-1.136 -2.168,-2.707 0.047,0.684 0.047,1.571 0.047,2.598 v 10 h -3.395 v -25.445 z"
         style="fill:#000000;fill-opacity:1;fill-rule:nonzero;stroke:none"
         id="path68" /><path
         d="m 584.563,395.785 -0.434,3.192 c -1.707,-0.692 -3.211,-1.028 -4.441,-1.028 -1.254,0 -2.278,0.321 -3.098,0.957 -0.777,0.633 -1.16,1.528 -1.16,2.547 0,0.891 0.273,1.598 0.84,2.211 0.523,0.664 1.527,1.348 2.984,2.141 l 1.277,0.687 c 2.008,1.067 3.371,2.094 4.125,3.121 0.75,1.028 1.137,2.367 1.137,4.004 0,2.281 -0.754,4.125 -2.211,5.543 -1.48,1.41 -3.441,2.117 -5.855,2.117 -1.961,0 -3.754,-0.343 -5.442,-1.027 l 0.363,-3.395 c 1.731,0.887 3.258,1.34 4.649,1.34 1.457,0 2.664,-0.382 3.551,-1.183 0.89,-0.793 1.324,-1.817 1.324,-3.117 0,-1.797 -1.207,-3.278 -3.668,-4.465 l -1.301,-0.664 c -1.89,-0.934 -3.23,-1.934 -4.055,-3.004 -0.816,-1.071 -1.253,-2.391 -1.253,-3.965 0,-2.094 0.683,-3.777 2.078,-5.031 1.363,-1.254 3.14,-1.899 5.398,-1.899 1.727,0 3.481,0.301 5.192,0.918 z"
         style="fill:#000000;fill-opacity:1;fill-rule:nonzero;stroke:none"
         id="path70" /><path
         d="m 609.941,395.352 10.274,25.445 h -3.805 l -2.508,-6.449 h -11.5 l -2.461,6.449 h -3.668 l 10.114,-25.445 z m 2.801,15.898 -2.734,-7.086 c -1.113,-2.867 -1.75,-4.758 -1.938,-5.668 -0.269,1.043 -0.957,2.957 -1.976,5.738 l -2.625,7.016 z"
         style="fill:#000000;fill-opacity:1;fill-rule:nonzero;stroke:none"
         id="path72" /><path
         d="m 642.379,395.352 v 25.445 h -4.371 l -7.496,-13.805 c -2.164,-4.012 -3.528,-6.902 -3.989,-8.722 0.188,2.32 0.297,5.488 0.297,9.562 v 12.965 h -3.394 v -25.445 h 4.625 l 8.066,14.988 c 1.613,2.941 2.688,5.379 3.238,7.293 -0.23,-2.485 -0.347,-5.809 -0.347,-10.028 v -12.253 z"
         style="fill:#000000;fill-opacity:1;fill-rule:nonzero;stroke:none"
         id="path74" /><path
         d="m 648.488,395.352 h 4.922 c 2.797,0 4.899,0.207 6.309,0.613 2.527,0.73 4.601,2.211 6.195,4.469 1.574,2.25 2.348,4.804 2.348,7.742 0,2.777 -0.703,5.215 -2.141,7.316 -1.457,2.094 -3.375,3.574 -5.832,4.461 -1.598,0.57 -3.715,0.844 -6.355,0.844 h -5.446 z m 3.391,3.097 v 19.254 h 1.781 c 2.664,0 4.649,-0.301 5.965,-0.918 1.551,-0.726 2.781,-1.82 3.668,-3.394 0.91,-1.567 1.348,-3.325 1.348,-5.328 0,-2.024 -0.5,-3.899 -1.528,-5.536 -1.05,-1.64 -2.414,-2.781 -4.101,-3.441 -1.16,-0.41 -2.938,-0.637 -5.328,-0.637 z"
         style="fill:#000000;fill-opacity:1;fill-rule:nonzero;stroke:none"
         id="path76" /><path
         d="m 693.004,395.785 -0.434,3.192 c -1.707,-0.692 -3.191,-1.028 -4.445,-1.028 -1.23,0 -2.277,0.321 -3.094,0.957 -0.777,0.633 -1.16,1.528 -1.16,2.547 0,0.891 0.266,1.598 0.84,2.211 0.547,0.664 1.527,1.348 2.984,2.141 l 1.293,0.687 c 1.985,1.067 3.379,2.094 4.125,3.121 0.731,1.028 1.121,2.367 1.121,4.004 0,2.281 -0.73,4.125 -2.187,5.543 -1.504,1.41 -3.465,2.117 -5.879,2.117 -1.961,0 -3.758,-0.343 -5.426,-1.027 l 0.344,-3.395 c 1.758,0.887 3.277,1.34 4.672,1.34 1.461,0 2.668,-0.382 3.551,-1.183 0.886,-0.793 1.3,-1.817 1.3,-3.117 0,-1.797 -1.207,-3.278 -3.644,-4.465 l -1.324,-0.664 c -1.887,-0.934 -3.231,-1.934 -4.051,-3.004 -0.824,-1.071 -1.254,-2.391 -1.254,-3.965 0,-2.094 0.68,-3.777 2.074,-5.031 1.391,-1.254 3.16,-1.899 5.395,-1.899 1.758,0 3.488,0.301 5.199,0.918 z"
         style="fill:#13b1a4;fill-opacity:1;fill-rule:nonzero;stroke:none"
         id="path78" /><path
         d="m 717.922,395.352 -9.25,14.644 v 10.801 h -3.371 v -10.684 l -9.383,-14.761 h 4.195 l 5.852,9.543 c 0.254,0.367 0.613,1.027 1.047,1.89 0.203,-0.48 0.523,-1.047 0.957,-1.773 l 5.922,-9.66 z"
         style="fill:#000000;fill-opacity:1;fill-rule:nonzero;stroke:none"
         id="path80" /><path
         d="m 731.891,395.785 -0.434,3.192 c -1.707,-0.692 -3.187,-1.028 -4.441,-1.028 -1.254,0 -2.282,0.321 -3.098,0.957 -0.777,0.633 -1.168,1.528 -1.168,2.547 0,0.891 0.273,1.598 0.848,2.211 0.547,0.664 1.527,1.348 2.984,2.141 l 1.297,0.687 c 1.98,1.067 3.375,2.094 4.121,3.121 0.73,1.028 1.121,2.367 1.121,4.004 0,2.281 -0.73,4.125 -2.187,5.543 -1.504,1.41 -3.465,2.117 -5.879,2.117 -1.961,0 -3.762,-0.343 -5.422,-1.027 l 0.344,-3.395 c 1.753,0.887 3.277,1.34 4.671,1.34 1.457,0 2.665,-0.382 3.551,-1.183 0.887,-0.793 1.301,-1.817 1.301,-3.117 0,-1.797 -1.207,-3.278 -3.645,-4.465 l -1.324,-0.664 c -1.89,-0.934 -3.238,-1.934 -4.054,-3.004 -0.821,-1.071 -1.254,-2.391 -1.254,-3.965 0,-2.094 0.683,-3.777 2.07,-5.031 1.395,-1.254 3.168,-1.899 5.402,-1.899 1.731,0 3.485,0.301 5.196,0.918 z"
         style="fill:#000000;fill-opacity:1;fill-rule:nonzero;stroke:none"
         id="path82" /><path
         d="m 753.391,395.352 v 3.097 h -7.422 v 22.348 h -3.371 v -22.348 h -7.586 v -3.097 z"
         style="fill:#000000;fill-opacity:1;fill-rule:nonzero;stroke:none"
         id="path84" /><path
         d="m 769.844,395.352 v 3.097 h -9.797 v 7.52 h 9.094 v 3.07 h -9.094 v 8.664 h 10.09 v 3.094 h -13.485 v -25.445 z"
         style="fill:#000000;fill-opacity:1;fill-rule:nonzero;stroke:none"
         id="path86" /><path
         d="m 801.441,395.352 v 25.445 h -3.371 v -14.531 c 0,-0.801 0.043,-2.282 0.067,-4.422 0.047,-2.141 0.047,-3.559 0.047,-4.285 v -0.52 c -0.114,0.383 -0.184,0.613 -0.231,0.637 l -0.57,1.98 c -0.203,0.731 -0.727,2.297 -1.547,4.739 -0.32,0.867 -0.797,2.253 -1.391,4.035 l -4.441,12.367 h -3.281 l -4.461,-12.367 c -1.688,-4.563 -2.895,-8.16 -3.621,-10.707 0,0 -0.094,-0.231 -0.235,-0.684 v 0.566 c 0.071,0.68 0.141,1.825 0.235,3.465 0,0.453 0.015,1.387 0.062,2.758 0.024,1.09 0.07,2.024 0.07,2.703 v 14.266 h -3.371 v -25.445 h 5.582 l 4.649,12.781 c 1.207,3.324 1.887,5.258 2.047,5.762 0.367,1.093 0.617,2.05 0.75,2.781 0.39,-1.481 1.324,-4.352 2.847,-8.613 l 4.516,-12.711 z"
         style="fill:#000000;fill-opacity:1;fill-rule:nonzero;stroke:none"
         id="path88" /><path
         d="m 818.547,395.785 -0.43,3.192 c -1.711,-0.692 -3.191,-1.028 -4.445,-1.028 -1.254,0 -2.274,0.321 -3.098,0.957 -0.773,0.633 -1.16,1.528 -1.16,2.547 0,0.891 0.274,1.598 0.84,2.211 0.551,0.664 1.527,1.348 2.988,2.141 l 1.301,0.687 c 1.98,1.067 3.367,2.094 4.121,3.121 0.731,1.028 1.113,2.367 1.113,4.004 0,2.281 -0.726,4.125 -2.187,5.543 -1.504,1.41 -3.461,2.117 -5.879,2.117 -1.957,0 -3.754,-0.343 -5.418,-1.027 l 0.34,-3.395 c 1.754,0.887 3.285,1.34 4.672,1.34 1.457,0 2.664,-0.382 3.55,-1.183 0.895,-0.793 1.301,-1.817 1.301,-3.117 0,-1.797 -1.207,-3.278 -3.644,-4.465 l -1.317,-0.664 c -1.898,-0.934 -3.238,-1.934 -4.062,-3.004 -0.817,-1.071 -1.254,-2.391 -1.254,-3.965 0,-2.094 0.691,-3.777 2.078,-5.031 1.387,-1.254 3.168,-1.899 5.398,-1.899 1.735,0 3.485,0.301 5.192,0.918 z"
         style="fill:#000000;fill-opacity:1;fill-rule:nonzero;stroke:none"
         id="path90" /></g></g></svg>
